<?xml version="1.0" encoding="utf-8"?>
<!-- Generator: Adobe Illustrator 21.0.0, SVG Export Plug-In . SVG Version: 6.00 Build 0)  -->
<svg version="1.1" id="Layer_1" xmlns="http://www.w3.org/2000/svg" xmlns:xlink="http://www.w3.org/1999/xlink" x="0px" y="0px"
	 viewBox="0 0 889 279" style="enable-background:new 0 0 889 279;" xml:space="preserve">
<style type="text/css">
	.st0{fill-rule:evenodd;clip-rule:evenodd;fill:#ffffff;}
	.st1{fill-rule:evenodd;clip-rule:evenodd;fill:#00AAFF;}
	.st2{fill-rule:evenodd;clip-rule:evenodd;fill:#026DBB;}
</style>
<polygon class="st0" points="107.5,152.5 155.5,221.5 207.5,221.5 132.5,114.5 207.5,8.5 154.5,8.5 107.5,85.5 60.5,8.5 8.5,8.5
	82.5,114.5 7.5,221.5 59.5,221.5 "/>
<polygon class="st0" points="743.5,7.5 655.5,221.5 701.5,221.5 768.5,51.5 836.5,221.5 882.5,221.5 794.5,7.5 "/>
<path class="st0" d="M218.5,114.5c0,29.5,1.6,66.6,21,86s56.4,21,86,21s66.6-1.6,86-21s21-56.5,21-86s-1.6-65.7-21-85
	s-56.4-21-86-21s-66.6,1.6-86,21S218.5,85,218.5,114.5z M259.5,114.5c0-18.3,1-41,13-53s34.6-13,53-13s41,1,53,13s13,34.7,13,53
	s-1,42-13,54s-34.6,13-53,13s-41-1-53-13S259.5,132.8,259.5,114.5z"/>
<polygon class="st0" points="638.5,8.5 597.5,8.5 597.5,150.5 495.5,8.5 454.5,8.5 454.5,222.5 493.5,222.5 493.5,88.5 595.5,222.5
	638.5,222.5 "/>
<polygon class="st0" points="759.5,225.5 825.5,272.5 718.5,251.5 "/>
<polygon class="st1" points="767.5,114.5 825.5,272.5 759.5,225.5 "/>
<polygon class="st2" points="767.5,114.5 759.5,225.5 718.5,251.5 "/>
</svg>
